<svg width="512" height="512" viewBox="0 0 512 512" fill="none" xmlns="http://www.w3.org/2000/svg">
<path d="M307.281 228.668C308.13 237.156 308.47 246.154 308.47 256C308.47 322.377 290.305 357.517 255.674 357.517C232.586 357.517 216.798 341.899 208.82 311.851L307.281 228.668ZM203.897 282.992C203.048 274.674 202.708 265.676 202.708 256C202.708 189.454 221.042 154.483 255.674 154.483C278.931 154.483 294.719 170.271 302.528 200.658L203.897 282.992ZM255.674 128C202.369 128 173 173.496 173 256C173 338.504 202.369 384 255.674 384C308.809 384 338.347 338.504 338.347 256C338.347 173.496 308.809 128 255.674 128Z" fill="black"/>
</svg>
